<svg height="54" viewBox="0 0 83 54" fill="none" xmlns="http://www.w3.org/2000/svg">
  <path d="M31.3358 7.77328V0.869995H18.5895V13.8706H5.8431V26.8695H0V33.7728H5.8431V54H12.7464V33.7744H18.5895V41.001H25.4928V20.7738H31.3358V13.8706H25.4928V7.77167H31.3358V7.77328ZM18.5895 26.8711H12.7464V20.7738H18.5895V26.8711Z" fill="#29BF82"/>
  <path d="M38.0381 32.0353V22.64H35.9692V20.9363H38.0381V15.4407H44.5891V17.1428H39.848V20.9363H44.5891V22.6384H39.848V32.0337H38.0381V32.0353Z" fill="#1A3B3E"/>
  <path d="M57.0024 32.0353H46.917V20.1834H48.706V30.3123H55.2135V20.1834H57.0024V32.0353Z" fill="#1A3B3E"/>
  <path d="M62.1523 32.0353H60.3633V15.4407H62.1523V32.0353Z" fill="#1A3B3E"/>
  <path d="M66.4622 32.0353V22.64H64.3933V20.9363H66.4622V15.4407H73.0132V17.1428H68.2721V20.9363H73.0132V22.6384H68.2721V32.0337H66.4622V32.0353Z" fill="#1A3B3E"/>
  <path d="M75.3507 16.0778C75.5872 15.8558 75.8816 15.7432 76.2339 15.7432C76.5862 15.7432 76.8806 15.8542 77.1171 16.0778C77.3536 16.3014 77.4726 16.5814 77.4726 16.9176C77.4726 17.2554 77.3536 17.5322 77.1171 17.7477C76.8806 17.9633 76.5862 18.0711 76.2339 18.0711C75.8816 18.0711 75.5872 17.9633 75.3507 17.7477C75.1142 17.5322 74.9951 17.2554 74.9951 16.9176C74.9951 16.5798 75.1142 16.2998 75.3507 16.0778ZM77.13 32.0353H75.341V20.1834H77.13V32.0353Z" fill="#1A3B3E"/>
  <path d="M82.9264 32.0353H81.1375V15.4407H82.9264V32.0353Z" fill="#1A3B3E"/>
  <path d="M38.5689 35.9157C39.2301 35.9157 39.8029 36.1281 40.2855 36.5528C40.7681 36.9775 41.0449 37.5293 41.1189 38.2098C41.1317 38.3369 41.1317 38.4833 41.1189 38.6474H36.7671C36.78 39.1751 36.9586 39.6111 37.3044 39.9537C37.6503 40.2964 38.0783 40.4686 38.5882 40.4686C39.0065 40.4686 39.3733 40.3479 39.6854 40.1082C39.9975 39.8685 40.2002 39.5516 40.2903 39.1574H41.0642C40.9548 39.7526 40.67 40.2288 40.2083 40.586C39.7466 40.9448 39.2076 41.1233 38.5882 41.1233C38.1088 41.1233 37.6696 41.0107 37.2723 40.7871C36.8749 40.5619 36.5644 40.2514 36.3392 39.854C36.1139 39.4566 36.0029 39.0126 36.0029 38.5203C36.0029 37.7803 36.2491 37.1609 36.7398 36.6638C37.2304 36.1651 37.8402 35.9157 38.5689 35.9157ZM38.5786 36.5544C38.1169 36.5544 37.7243 36.6992 37.3994 36.9872C37.0744 37.2751 36.8813 37.65 36.8218 38.1117H40.3273C40.2726 37.6451 40.0796 37.2687 39.7498 36.9823C39.4168 36.696 39.0274 36.5544 38.5786 36.5544Z" fill="#1A3B3E"/>
  <path d="M47.0167 41.0236H46.2525V39.9763C46.1672 40.1468 46.0595 40.3028 45.9291 40.4444C45.7988 40.5876 45.6508 40.7083 45.4883 40.808C45.3242 40.9077 45.1441 40.985 44.9462 41.0397C44.7483 41.0944 44.5408 41.1217 44.322 41.1217C43.6366 41.1217 43.0639 40.8756 42.6054 40.3849C42.1469 39.8926 41.9185 39.2716 41.9185 38.5187C41.9185 37.7658 42.1485 37.1448 42.6102 36.6525C43.072 36.1618 43.6415 35.9157 44.322 35.9157C44.7467 35.9157 45.1296 36.0203 45.469 36.2294C45.8085 36.4385 46.0691 36.7233 46.2525 37.0805V34.0125H47.0167V41.0236ZM45.7474 37.1673C45.4047 36.8118 44.98 36.6348 44.4732 36.6348C43.9664 36.6348 43.5417 36.8118 43.199 37.1673C42.8564 37.5229 42.6842 37.9733 42.6842 38.5187C42.6842 39.0641 42.8548 39.5161 43.1942 39.8701C43.5337 40.2256 43.96 40.4026 44.4732 40.4026C44.9864 40.4026 45.4127 40.2256 45.7522 39.8701C46.0916 39.5145 46.2622 39.0641 46.2622 38.5187C46.2622 37.9733 46.09 37.5229 45.7474 37.1673Z" fill="#1A3B3E"/>
  <path d="M52.6973 41.0236H48.4373V36.0171H49.1934V40.2964H51.9428V36.0171H52.6989V41.0236H52.6973Z" fill="#1A3B3E"/>
  <path d="M56.4022 35.9157C57.0216 35.9157 57.5638 36.1055 58.0319 36.4852C58.4985 36.8649 58.7848 37.3636 58.8878 37.983H58.114C58.0528 37.7159 57.9402 37.4794 57.7777 37.2735C57.6152 37.0676 57.4125 36.9099 57.1728 36.8005C56.9331 36.6911 56.6741 36.6364 56.3942 36.6364C55.8778 36.6364 55.4482 36.8134 55.1055 37.1689C54.7629 37.5245 54.5907 37.975 54.5907 38.5203C54.5907 39.0657 54.7645 39.5178 55.1088 39.8717C55.4546 40.2272 55.8826 40.4042 56.3926 40.4042C56.8173 40.4042 57.1873 40.2803 57.5026 40.031C57.8179 39.7816 58.0206 39.455 58.1123 39.048H58.8862C58.7832 39.6738 58.4985 40.1758 58.0351 40.5554C57.5718 40.9351 57.0264 41.1249 56.4006 41.1249C55.6718 41.1249 55.0605 40.8772 54.5666 40.3833C54.0711 39.8894 53.825 39.2684 53.825 38.5219C53.825 38.0296 53.9376 37.5856 54.1612 37.1883C54.3864 36.7909 54.6953 36.4804 55.0895 36.2552C55.4852 36.0283 55.9228 35.9157 56.4022 35.9157Z" fill="#1A3B3E"/>
  <path d="M62.083 35.9157C62.5077 35.9157 62.8906 36.0203 63.23 36.2294C63.5695 36.4386 63.8317 36.7233 64.0135 37.0805V36.0155H64.7777V41.022H64.0135V39.9747C63.9282 40.1452 63.8205 40.3012 63.6901 40.4428C63.5598 40.586 63.4118 40.7067 63.2493 40.8064C63.0852 40.9061 62.9051 40.9834 62.7072 41.0381C62.5093 41.0928 62.3018 41.1201 62.083 41.1201C61.3976 41.1201 60.8249 40.874 60.3664 40.3833C59.9079 39.891 59.6794 39.27 59.6794 38.5171C59.6794 38.02 59.7856 37.5711 59.998 37.1706C60.2103 36.77 60.4999 36.4611 60.8667 36.2423C61.2351 36.0251 61.6389 35.9157 62.083 35.9157ZM63.5067 37.1673C63.1641 36.8118 62.7394 36.6348 62.2326 36.6348C61.7258 36.6348 61.3011 36.8118 60.9584 37.1673C60.6158 37.5229 60.4436 37.9733 60.4436 38.5187C60.4436 39.0641 60.6142 39.5162 60.9536 39.8701C61.2931 40.224 61.7194 40.4026 62.2326 40.4026C62.7458 40.4026 63.1721 40.2256 63.5116 39.8701C63.851 39.5145 64.0216 39.0641 64.0216 38.5187C64.0216 37.9733 63.851 37.5229 63.5067 37.1673Z" fill="#1A3B3E"/>
  <path d="M67.3631 36.017H69.366V36.7362H67.3631V40.3044H69.366V41.0236H66.5989V36.7362H65.7253V36.017H66.5989V34.915H67.3631V36.017Z" fill="#1A3B3E"/>
  <path d="M70.4985 34.2828C70.5982 34.1895 70.7221 34.1412 70.8717 34.1412C71.0197 34.1412 71.1452 34.1879 71.245 34.2828C71.3447 34.3777 71.3946 34.4951 71.3946 34.6383C71.3946 34.7815 71.3447 34.8973 71.245 34.989C71.1452 35.0807 71.0197 35.1258 70.8717 35.1258C70.7237 35.1258 70.5982 35.0807 70.4985 34.989C70.3987 34.8973 70.3489 34.7815 70.3489 34.6383C70.3489 34.4951 70.3987 34.3761 70.4985 34.2828ZM71.2498 41.0236H70.4937V36.017H71.2498V41.0236Z" fill="#1A3B3E"/>
  <path d="M73.1289 36.659C73.6292 36.1651 74.2389 35.9173 74.958 35.9173C75.6772 35.9173 76.2853 36.1667 76.784 36.6638C77.2811 37.1609 77.5337 37.7803 77.5401 38.5203C77.5337 39.2668 77.2843 39.8878 76.7888 40.3817C76.2933 40.8772 75.682 41.1233 74.9548 41.1233C74.4818 41.1233 74.0475 41.0107 73.6533 40.7871C73.2592 40.5635 72.9487 40.2514 72.7202 39.854C72.4934 39.4566 72.3792 39.0126 72.3792 38.5203C72.3775 37.7738 72.6285 37.1528 73.1289 36.659ZM76.2467 37.1673C75.8944 36.8118 75.4632 36.6348 74.9532 36.6348C74.4432 36.6348 74.0137 36.8118 73.6646 37.1673C73.3155 37.5229 73.1417 37.9733 73.1417 38.5187C73.1417 39.0641 73.3155 39.5161 73.6646 39.8701C74.0137 40.224 74.4448 40.4026 74.958 40.4026C75.4712 40.4026 75.9024 40.2256 76.2515 39.8701C76.6006 39.5145 76.7744 39.0641 76.7744 38.5187C76.7744 37.9733 76.599 37.5229 76.2467 37.1673Z" fill="#1A3B3E"/>
  <path d="M82.9103 41.0236H82.1462V36.7442H79.4241V41.0236H78.668V36.0171H82.9103V41.0236Z" fill="#1A3B3E"/>
</svg>
