<svg viewBox="0 0 92 59" fill="none" xmlns="http://www.w3.org/2000/svg">
  <path
    d="M34.7646 7.65864V0H20.6235V14.4231H6.48244V28.8444H0V36.503H6.48244V58.9435H14.1411V36.5048H20.6235V44.5222H28.2822V22.0817H34.7646V14.4231H28.2822V7.65685H34.7646V7.65864ZM20.6235 28.8462H14.1411V22.0817H20.6235V28.8462Z"
    fill="white"/>
  <path
    d="M42.2001 34.5754V24.1521H39.9048V22.262H42.2001V16.1651H49.4678V18.0534H44.208V22.262H49.4678V24.1503H44.208V34.5736H42.2001V34.5754Z"
    fill="white"/>
  <path d="M63.2394 34.5755H52.0504V21.4267H54.0351V32.6639H61.2547V21.4267H63.2394V34.5755Z" fill="white"/>
  <path d="M68.9527 34.5755H66.968V16.1651H68.9527V34.5755Z" fill="white"/>
  <path
    d="M73.7342 34.5755V24.1521H71.439V22.262H73.7342V16.1651H81.002V18.0534H75.7421V22.262H81.002V24.1504H75.7421V34.5737H73.7342V34.5755Z"
    fill="white"/>
  <path
    d="M83.5953 16.8719C83.8576 16.6256 84.1842 16.5007 84.5751 16.5007C84.966 16.5007 85.2926 16.6239 85.555 16.8719C85.8173 17.12 85.9494 17.4306 85.9494 17.8036C85.9494 18.1784 85.8173 18.4854 85.555 18.7246C85.2926 18.9637 84.966 19.0833 84.5751 19.0833C84.1842 19.0833 83.8576 18.9637 83.5953 18.7246C83.3329 18.4854 83.2008 18.1784 83.2008 17.8036C83.2008 17.4288 83.3329 17.1182 83.5953 16.8719ZM85.5693 34.5755H83.5845V21.4268H85.5693V34.5755Z"
    fill="white"/>
  <path d="M91.9998 34.5755H90.0151V16.1651H91.9998V34.5755Z" fill="white"/>
  <path
    d="M42.7889 38.8804C43.5225 38.8804 44.1579 39.116 44.6933 39.5872C45.2288 40.0584 45.5357 40.6706 45.6178 41.4256C45.6321 41.5666 45.6321 41.729 45.6178 41.911H40.7899C40.8042 42.4965 41.0023 42.9801 41.3861 43.3603C41.7698 43.7405 42.2445 43.9315 42.8103 43.9315C43.2744 43.9315 43.6813 43.7976 44.0276 43.5317C44.3738 43.2657 44.5987 42.9141 44.6987 42.4768H45.5572C45.4358 43.1372 45.1199 43.6655 44.6076 44.0617C44.0954 44.4598 43.4975 44.6579 42.8103 44.6579C42.2785 44.6579 41.7912 44.5329 41.3504 44.2848C40.9095 44.035 40.565 43.6905 40.3152 43.2497C40.0653 42.8088 39.9421 42.3162 39.9421 41.77C39.9421 40.949 40.2152 40.2619 40.7596 39.7104C41.304 39.1571 41.9804 38.8804 42.7889 38.8804ZM42.7996 39.589C42.2874 39.589 41.8519 39.7496 41.4914 40.0691C41.1308 40.3886 40.9167 40.8045 40.8506 41.3167H44.7397C44.679 40.7991 44.4649 40.3815 44.099 40.0638C43.7295 39.7461 43.2976 39.589 42.7996 39.589Z"
    fill="white"/>
  <path
    d="M52.161 44.5472H51.3132V43.3853C51.2186 43.5745 51.099 43.7476 50.9544 43.9047C50.8099 44.0635 50.6456 44.1974 50.4654 44.3081C50.2833 44.4187 50.0834 44.5044 49.8639 44.5651C49.6444 44.6258 49.4141 44.6561 49.1714 44.6561C48.4111 44.6561 47.7757 44.383 47.267 43.8387C46.7583 43.2925 46.5049 42.6036 46.5049 41.7683C46.5049 40.933 46.7601 40.244 47.2724 39.6979C47.7846 39.1535 48.4164 38.8804 49.1714 38.8804C49.6426 38.8804 50.0674 38.9965 50.444 39.2285C50.8206 39.4605 51.1097 39.7764 51.3132 40.1727V36.769H52.161V44.5472ZM50.7527 40.269C50.3726 39.8746 49.9014 39.6783 49.3392 39.6783C48.777 39.6783 48.3058 39.8746 47.9256 40.269C47.5454 40.6635 47.3545 41.1632 47.3545 41.7683C47.3545 42.3733 47.5436 42.8749 47.9202 43.2675C48.2968 43.662 48.7698 43.8583 49.3392 43.8583C49.9085 43.8583 50.3815 43.662 50.7581 43.2675C51.1347 42.8731 51.3239 42.3733 51.3239 41.7683C51.3239 41.1632 51.1329 40.6635 50.7527 40.269Z"
    fill="white"/>
  <path d="M58.4631 44.5472H53.7369V38.9929H54.5758V43.7405H57.626V38.9929H58.4649V44.5472H58.4631Z" fill="white"/>
  <path
    d="M62.5736 38.8804C63.2608 38.8804 63.8623 39.091 64.3816 39.5123C64.8992 39.9335 65.2169 40.4868 65.3312 41.1739H64.4727C64.4048 40.8776 64.2799 40.6153 64.0996 40.3868C63.9194 40.1584 63.6945 39.9834 63.4286 39.8621C63.1626 39.7407 62.8753 39.68 62.5647 39.68C61.9918 39.68 61.5152 39.8764 61.1351 40.2708C60.7549 40.6652 60.5639 41.165 60.5639 41.77C60.5639 42.3751 60.7567 42.8766 61.1386 43.2693C61.5224 43.6637 61.9971 43.8601 62.5629 43.8601C63.0341 43.8601 63.4446 43.7226 63.7944 43.446C64.1443 43.1693 64.3691 42.807 64.4709 42.3555H65.3294C65.2151 43.0498 64.8992 43.6066 64.3852 44.0278C63.8712 44.449 63.2661 44.6597 62.5718 44.6597C61.7633 44.6597 61.0851 44.3848 60.5372 43.8369C59.9874 43.2889 59.7144 42.6 59.7144 41.7718C59.7144 41.2257 59.8393 40.7331 60.0874 40.2922C60.3372 39.8514 60.6799 39.5069 61.1172 39.257C61.5563 39.0054 62.0417 38.8804 62.5736 38.8804Z"
    fill="white"/>
  <path
    d="M68.8759 38.8804C69.3471 38.8804 69.7718 38.9964 70.1484 39.2285C70.525 39.4605 70.816 39.7764 71.0176 40.1726V38.9911H71.8654V44.5454H71.0176V43.3835C70.923 43.5727 70.8035 43.7458 70.6589 43.9029C70.5143 44.0617 70.3501 44.1956 70.1699 44.3063C69.9878 44.4169 69.7879 44.5026 69.5684 44.5633C69.3488 44.624 69.1186 44.6543 68.8759 44.6543C68.1155 44.6543 67.4801 44.3812 66.9715 43.8369C66.4628 43.2907 66.2094 42.6018 66.2094 41.7665C66.2094 41.215 66.3272 40.717 66.5628 40.2726C66.7983 39.8282 67.1196 39.4855 67.5265 39.2427C67.9353 39.0018 68.3833 38.8804 68.8759 38.8804ZM70.4554 40.269C70.0753 39.8746 69.6041 39.6782 69.0419 39.6782C68.4796 39.6782 68.0084 39.8746 67.6283 40.269C67.2481 40.6635 67.0571 41.1632 67.0571 41.7683C67.0571 42.3733 67.2463 42.8748 67.6229 43.2675C67.9995 43.6602 68.4725 43.8583 69.0419 43.8583C69.6112 43.8583 70.0842 43.6619 70.4608 43.2675C70.8374 42.8731 71.0266 42.3733 71.0266 41.7683C71.0266 41.1632 70.8374 40.6635 70.4554 40.269Z"
    fill="white"/>
  <path
    d="M74.7334 38.9929H76.9555V39.7907H74.7334V43.7494H76.9555V44.5472H73.8857V39.7907H72.9165V38.9929H73.8857V37.7703H74.7334V38.9929Z"
    fill="white"/>
  <path
    d="M78.2121 37.0689C78.3228 36.9653 78.4602 36.9118 78.6262 36.9118C78.7904 36.9118 78.9296 36.9635 79.0403 37.0689C79.1509 37.1742 79.2063 37.3045 79.2063 37.4633C79.2063 37.6221 79.1509 37.7507 79.0403 37.8524C78.9296 37.9541 78.7904 38.0041 78.6262 38.0041C78.462 38.0041 78.3228 37.9541 78.2121 37.8524C78.1015 37.7507 78.0461 37.6221 78.0461 37.4633C78.0461 37.3045 78.1015 37.1724 78.2121 37.0689ZM79.0456 44.5472H78.2068V38.9929H79.0456V44.5472Z"
    fill="white"/>
  <path
    d="M81.1303 39.705C81.6854 39.1571 82.3618 38.8822 83.1597 38.8822C83.9575 38.8822 84.6321 39.1589 85.1854 39.7104C85.7369 40.2619 86.0171 40.9491 86.0243 41.7701C86.0171 42.5982 85.7405 43.2872 85.1908 43.8351C84.641 44.3848 83.9628 44.6579 83.1561 44.6579C82.6313 44.6579 82.1495 44.533 81.7122 44.2849C81.2749 44.0368 80.9304 43.6905 80.677 43.2497C80.4253 42.8088 80.2986 42.3162 80.2986 41.7701C80.2968 40.9419 80.5752 40.253 81.1303 39.705ZM84.5893 40.269C84.1984 39.8746 83.7201 39.6783 83.1543 39.6783C82.5885 39.6783 82.112 39.8746 81.7247 40.269C81.3374 40.6635 81.1446 41.1632 81.1446 41.7683C81.1446 42.3733 81.3374 42.8749 81.7247 43.2675C82.112 43.6602 82.5903 43.8583 83.1597 43.8583C83.729 43.8583 84.2073 43.662 84.5946 43.2675C84.9819 42.8731 85.1747 42.3733 85.1747 41.7683C85.1747 41.1632 84.9802 40.6635 84.5893 40.269Z"
    fill="white"/>
  <path d="M91.9821 44.5472H91.1343V39.7996H88.1144V44.5472H87.2755V38.9929H91.9821V44.5472Z" fill="white"/>
</svg>
