<svg viewBox="0 0 52 52" fill="none" xmlns="http://www.w3.org/2000/svg">
  <rect width="52" height="52" rx="12" fill="black"/>
  <g clip-path="url(#clip0_10_498)">
    <path fill-rule="evenodd" clip-rule="evenodd" d="M22.4011 22.9808C21.5681 22.1478 20.4766 21.731 19.3847 21.7302H19.3793C18.2876 21.7309 17.1959 22.1478 16.3629 22.9808C14.6955 24.6482 14.6955 27.3516 16.3629 29.019C18.0303 30.6864 20.7337 30.6864 22.4011 29.019C24.0685 27.3516 24.0685 24.6483 22.4011 22.9808ZM21.1934 27.8114C20.193 28.8119 18.571 28.8119 17.5705 27.8114C16.5701 26.8109 16.5701 25.189 17.5705 24.1885C18.571 23.188 20.193 23.188 21.1934 24.1885C22.1939 25.189 22.1939 26.8109 21.1934 27.8114Z" fill="white"/>
    <path fill-rule="evenodd" clip-rule="evenodd" d="M31.3674 22.9808C30.5344 22.1478 29.4429 21.731 28.3456 21.7302C27.2538 21.7309 26.1622 22.1478 25.3292 22.9808C23.6618 24.6482 23.6618 27.3516 25.3292 29.019C26.9966 30.6864 29.7 30.6864 31.3674 29.019C33.0348 27.3516 33.0348 24.6483 31.3674 22.9808ZM30.1597 27.8114C29.1593 28.8119 27.5373 28.8119 26.5368 27.8114C25.5364 26.8109 25.5364 25.189 26.5368 24.1885C27.5373 23.188 29.1593 23.188 30.1597 24.1885C31.1602 25.189 31.1602 26.8109 30.1597 27.8114ZM8.70785 30.2482L9.13483 30.2696H15.5393L15.5179 29.8431C15.4608 29.1401 14.963 28.6272 14.2584 28.5831L13.8314 28.5618H9.98879L15.1124 23.4381L15.091 23.0117C15.0572 22.3031 14.5388 21.789 13.8315 21.7516L13.4046 21.7307L7 21.7303L7.02137 22.1568C7.07674 22.8514 7.58202 23.3765 8.28042 23.4168L8.70792 23.4381H12.5506L7.42698 28.5618L7.44836 28.9883C7.49044 29.6922 7.99876 30.2016 8.70785 30.2482ZM37.9385 24.2894C38.0848 24.5413 38.1307 24.8254 38.1472 25.1461L38.1686 25.573V28.5618L38.19 28.9884C38.2322 29.6866 38.7455 30.2037 39.4499 30.2484L39.8765 30.2698V25.5731L39.8978 25.1461C39.9145 24.8295 39.9609 24.5389 40.1084 24.2864C40.4045 23.7791 40.9546 23.4383 41.5844 23.4383C42.2164 23.4383 42.7682 23.7816 43.0636 24.2919C43.209 24.5432 43.254 24.8333 43.2709 25.1462L43.2923 25.5728V28.562L43.3137 28.9885C43.358 29.6909 43.8682 30.2076 44.5736 30.2485L45.0001 30.2699V25.1463C45.0001 23.2599 43.4709 21.7306 41.5845 21.7306C40.5642 21.7306 39.6485 22.1778 39.0226 22.887C38.3968 22.1778 37.481 21.7306 36.4608 21.7306C35.7789 21.7295 35.1124 21.9335 34.5479 22.3161C34.2157 21.9465 33.4721 21.7306 33.0451 21.7306V30.2699L33.4721 30.2485C34.1852 30.2016 34.7038 29.698 34.7317 28.9891L34.7531 28.562V25.5732L34.7744 25.1462C34.7925 24.8251 34.8372 24.5403 34.984 24.2882C35.2799 23.78 35.8305 23.4384 36.4609 23.4384C37.0917 23.4381 37.6428 23.7804 37.9385 24.2894Z" fill="white"/>
  </g>
  <defs>
    <clipPath id="clip0_10_498">
      <rect width="38" height="38" fill="white" transform="translate(7 7)"/>
    </clipPath>
  </defs>
</svg>
