<svg viewBox="0 0 52 52" fill="none" xmlns="http://www.w3.org/2000/svg">
  <rect width="52" height="52" rx="12" fill="black"/>
  <g clip-path="url(#clip0_10_504)">
    <path d="M15.6094 28.9688C15.6094 26.7178 17.4405 24.8867 19.6914 24.8867H32.3086C33.3317 24.8867 34.1641 24.0544 34.1641 23.0312V12.5664C34.1641 9.49709 31.667 7 28.5977 7H23.4023C20.333 7 17.8359 9.49709 17.8359 12.5664V15.6094H26C26.6149 15.6094 27.1133 16.1078 27.1133 16.7227C27.1133 17.3376 26.6149 17.8359 26 17.8359H12.5664C9.49709 17.8359 7 20.333 7 23.4023V28.5977C7 31.667 9.49709 34.1641 12.5664 34.1641H15.6094V28.9688ZM23.4023 12.6406C22.7874 12.6406 22.2891 12.1422 22.2891 11.5273C22.2891 10.9124 22.7874 10.4141 23.4023 10.4141C24.0172 10.4141 24.5156 10.9124 24.5156 11.5273C24.5156 12.1422 24.0172 12.6406 23.4023 12.6406Z" fill="white"/>
    <path d="M39.4336 17.8359H36.3906V23.0312C36.3906 25.2822 34.5595 27.1133 32.3086 27.1133H19.6914C18.6683 27.1133 17.8359 27.9456 17.8359 28.9688V39.4336C17.8359 42.5029 20.333 45 23.4023 45H28.5977C31.667 45 34.1641 42.5029 34.1641 39.4336V36.3906H26C25.3851 36.3906 24.8867 35.8922 24.8867 35.2773C24.8867 34.6624 25.3851 34.1641 26 34.1641H39.4336C42.5029 34.1641 45 31.667 45 28.5977V23.4023C45 20.333 42.5029 17.8359 39.4336 17.8359ZM28.5977 39.3594C29.2126 39.3594 29.7109 39.8578 29.7109 40.4727C29.7109 41.0876 29.2126 41.5859 28.5977 41.5859C27.9828 41.5859 27.4844 41.0876 27.4844 40.4727C27.4844 39.8578 27.9828 39.3594 28.5977 39.3594Z" fill="white"/>
  </g>
  <defs>
    <clipPath id="clip0_10_504">
      <rect width="38" height="38" fill="white" transform="translate(7 7)"/>
    </clipPath>
  </defs>
</svg>

