<svg viewBox="0 0 52 52" fill="none" xmlns="http://www.w3.org/2000/svg">
  <rect width="52" height="52" rx="12" fill="black"/>
  <path d="M12 13H18.2751C20.4566 13 22.0478 13.4883 23.0488 14.4648C24.0497 15.4169 24.5502 16.8939 24.5502 18.8958V20.4704C24.5502 23.1315 23.6262 24.816 21.7784 25.5239V25.5972C22.805 25.8901 23.5236 26.4883 23.9342 27.3916C24.3705 28.2948 24.5887 29.5033 24.5887 31.0169V35.5211C24.5887 36.2535 24.6143 36.8516 24.6657 37.3155C24.717 37.7549 24.8453 38.1944 25.0506 38.6338H20.7389C20.5849 38.2188 20.4823 37.8282 20.4309 37.462C20.3796 37.0958 20.354 36.4366 20.354 35.4845V30.7972C20.354 29.6254 20.1486 28.8075 19.738 28.3437C19.353 27.8798 18.6729 27.6479 17.6976 27.6479H16.2347V38.6338H12V13ZM17.7746 23.9859C18.6216 23.9859 19.2504 23.7784 19.661 23.3634C20.0973 22.9484 20.3155 22.2526 20.3155 21.2761V19.2986C20.3155 18.3709 20.1358 17.6995 19.7765 17.2845C19.4428 16.8695 18.9039 16.662 18.1596 16.662H16.2347V23.9859H17.7746Z" fill="white"/>
  <path d="M33.6864 39C31.6332 39 30.0676 38.4507 28.9897 37.3521C27.9118 36.2291 27.3728 34.63 27.3728 32.5549V13H31.6075V32.8479C31.6075 33.7268 31.7872 34.3615 32.1465 34.7521C32.5315 35.1427 33.0705 35.338 33.7634 35.338C34.4564 35.338 34.9825 35.1427 35.3418 34.7521C35.7268 34.3615 35.9193 33.7268 35.9193 32.8479V13H40V32.5549C40 34.63 39.461 36.2291 38.3831 37.3521C37.3052 38.4507 35.7396 39 33.6864 39Z" fill="white"/>
</svg>
