<svg viewBox="0 0 52 52" fill="none" xmlns="http://www.w3.org/2000/svg">
  <rect width="52" height="52" rx="12" fill="black"/>
  <g clip-path="url(#clip0_10_528)">
    <path d="M32.0291 17.5483C32.929 18.1233 33.7917 18.7264 34.6172 19.3483C34.3133 17.5203 33.8382 15.7249 33.1982 13.9858C31.559 14.3435 29.954 14.8432 28.4014 15.4792C29.6169 16.0918 30.8325 16.7876 32.0291 17.5483ZM32.6226 12.585C32.5849 12.5094 32.5509 12.432 32.5208 12.353C30.9158 8.94824 28.7725 7 26.6203 7C24.468 7 22.3249 8.94824 20.7202 12.353C20.6803 12.4277 20.6462 12.5052 20.6179 12.585C22.6806 13.0637 24.6911 13.7442 26.6204 14.6169C28.5496 13.7443 30.56 13.0638 32.6226 12.585ZM34.9329 13.6797C34.8489 13.6877 34.7651 13.7 34.6826 13.7166C35.4838 15.9745 36.0313 18.3146 36.3151 20.6935C37.8182 21.9422 39.2119 23.317 40.4809 24.803C40.7682 24.4135 41.0375 24.0145 41.2879 23.6159C43.2916 20.4337 43.7743 17.5667 42.6237 15.7671C41.4641 13.958 38.6624 13.1973 34.933 13.6797H34.9329ZM24.8391 15.4793C23.2871 14.8421 21.6822 14.3423 20.0427 13.9859C19.4024 15.7249 18.9272 17.5202 18.6233 19.3482C19.4488 18.7264 20.321 18.1233 21.2115 17.5482C22.4085 16.7876 23.6236 16.0917 24.8391 15.4793ZM39.5532 26C38.6216 24.8807 37.6141 23.8268 36.538 22.8457C36.6119 23.8753 36.6493 24.9331 36.6493 26C36.6493 27.0669 36.6119 28.1154 36.5379 29.1543C37.614 28.1731 38.6215 27.1192 39.5532 26ZM28.6243 26C28.6243 27.1068 27.7271 28.0037 26.6204 28.0037C25.5136 28.0037 24.6166 27.1068 24.6166 26.0001C24.6166 24.8933 25.5136 23.996 26.6203 23.996C27.7271 23.996 28.6244 24.8933 28.6244 26.0001L28.6243 26Z" fill="white"/>
    <path d="M26.6204 16.2495C23.6593 17.6533 20.8752 19.4034 18.3264 21.4632C17.9923 24.4784 17.9923 27.5213 18.3264 30.5365C19.5096 31.4884 20.7421 32.3772 22.019 33.1991C23.4958 34.1484 25.0328 35.0007 26.6203 35.7504C28.209 35.0028 29.7463 34.1505 31.222 33.1991C32.5029 32.3832 33.7357 31.4942 34.9144 30.5365C35.0833 29.0303 35.167 27.5158 35.1649 26.0001C35.167 24.4843 35.0834 22.9696 34.9144 21.4632C33.7311 20.5116 32.4986 19.6228 31.222 18.8007C29.7462 17.8495 28.2089 16.9972 26.6203 16.2494L26.6204 16.2495ZM26.6204 29.4881C24.6938 29.4881 23.1323 27.9265 23.1323 26.0001C23.1323 24.0737 24.6938 22.5116 26.6203 22.5116C28.5467 22.5116 30.1087 24.0736 30.1087 26.0001C30.1076 27.9263 28.5465 29.4874 26.6204 29.4881ZM28.4014 36.5205C29.9535 37.1578 31.5586 37.6576 33.1982 38.0142C33.8381 36.2751 34.3132 34.4798 34.6172 32.6519C33.7917 33.2734 32.9199 33.8765 32.029 34.4515C30.8325 35.2126 29.6169 35.9084 28.4014 36.5204V36.5205ZM20.6179 39.4149C20.656 39.4907 20.69 39.5678 20.7202 39.6468C22.3248 43.0519 24.468 45.0002 26.6203 45.0002C28.7725 45.0002 30.9158 43.0519 32.5208 39.6468C32.5604 39.5722 32.5944 39.4946 32.6226 39.4149C30.56 38.9364 28.5496 38.2559 26.6204 37.3833C24.6911 38.256 22.6806 38.9364 20.6179 39.4149ZM40.4809 27.1968C39.2096 28.6807 37.8161 30.0555 36.3151 31.3066C35.9904 33.821 35.4432 36.1867 34.6826 38.2832C34.7659 38.2925 34.8492 38.311 34.9329 38.3205C38.6623 38.8028 41.464 38.0512 42.6237 36.2421C43.7833 34.433 43.2916 31.5756 41.2879 28.3937C41.0374 27.9853 40.7682 27.5957 40.4808 27.1967L40.4809 27.1968ZM12.76 24.803C14.0313 23.3193 15.4247 21.9447 16.9255 20.6935C17.2502 18.1792 17.7977 15.8135 18.5583 13.7166C18.4747 13.7076 18.3914 13.6892 18.308 13.6797C17.6095 13.5895 16.906 13.543 16.2017 13.5405C13.5302 13.5405 11.5446 14.3196 10.6168 15.7671C9.45718 17.5762 9.94897 20.4336 11.9531 23.6159C12.2035 24.0145 12.4723 24.4045 12.7601 24.803H12.76ZM12.76 27.1968C12.4724 27.5862 12.2034 27.9854 11.9531 28.3843C9.94897 31.5664 9.46655 34.4331 10.6168 36.2331C11.7765 38.0422 14.5783 38.8028 18.308 38.311C18.3921 38.3031 18.4757 38.2907 18.5584 38.2741C17.7572 36.0162 17.2095 33.6762 16.9254 31.2972C15.4161 30.0589 14.0219 28.6865 12.7601 27.1968H12.76ZM21.2115 34.4515C20.3117 33.8764 19.4488 33.2733 18.6233 32.6519C18.9273 34.4798 19.4025 36.2752 20.0427 38.0142C21.6818 37.6564 23.2867 37.1566 24.8391 36.5205C23.6236 35.9084 22.4084 35.2126 21.2115 34.4515ZM13.6877 26C14.6192 27.1194 15.6267 28.1733 16.7029 29.1543C16.6287 28.1245 16.5917 27.0669 16.5917 26C16.5917 24.9331 16.6287 23.8848 16.703 22.8457C15.6267 23.8266 14.6191 24.8806 13.6877 26Z" fill="white"/>
  </g>
  <defs>
    <clipPath id="clip0_10_528">
      <rect width="37.9443" height="38" fill="white" transform="translate(7 7)"/>
    </clipPath>
  </defs>
</svg>
