<svg viewBox="0 0 52 52" fill="none" xmlns="http://www.w3.org/2000/svg">
  <rect width="52" height="52" rx="12" fill="black"/>
  <path d="M35.7188 10H15.7812C14.7786 10.0007 13.8173 10.3993 13.1083 11.1083C12.3993 11.8173 12.0007 12.7786 12 13.7812V39.2188C12.0007 40.2214 12.3993 41.1827 13.1083 41.8917C13.8173 42.6007 14.7786 42.9993 15.7812 43H35.7188C36.7214 42.9993 37.6827 42.6007 38.3917 41.8917C39.1007 41.1827 39.4993 40.2214 39.5 39.2188V13.7812C39.4993 12.7786 39.1007 11.8173 38.3917 11.1083C37.6827 10.3993 36.7214 10.0007 35.7188 10ZM22.6975 35.74C22.7988 35.8344 22.8801 35.9483 22.9364 36.0748C22.9928 36.2013 23.0231 36.3378 23.0256 36.4763C23.028 36.6147 23.0025 36.7523 22.9507 36.8807C22.8988 37.0091 22.8216 37.1258 22.7237 37.2237C22.6258 37.3216 22.5091 37.3988 22.3807 37.4507C22.2523 37.5025 22.1147 37.528 21.9763 37.5256C21.8378 37.5231 21.7013 37.4928 21.5748 37.4364C21.4483 37.3801 21.3344 37.2988 21.24 37.1975L20.25 36.2089L19.26 37.1989C19.1644 37.2949 19.0508 37.3711 18.9257 37.423C18.8006 37.475 18.6664 37.5016 18.531 37.5015C18.3955 37.5014 18.2614 37.4744 18.1364 37.4223C18.0113 37.3701 17.8979 37.2937 17.8025 37.1975C17.7067 37.1017 17.6306 36.988 17.5788 36.8629C17.5269 36.7377 17.5002 36.6035 17.5002 36.4681C17.5002 36.3326 17.5269 36.1984 17.5788 36.0733C17.6306 35.9481 17.7067 35.8344 17.8025 35.7386L18.7911 34.75L17.8011 33.76C17.7053 33.6642 17.6293 33.5505 17.5775 33.4253C17.5257 33.3002 17.499 33.166 17.499 33.0306C17.499 32.8951 17.5257 32.761 17.5775 32.6358C17.6293 32.5106 17.7053 32.3969 17.8011 32.3011C17.8969 32.2053 18.0106 32.1293 18.1358 32.0775C18.261 32.0257 18.3951 31.999 18.5306 31.999C18.666 31.999 18.8002 32.0257 18.9253 32.0775C19.0505 32.1293 19.1642 32.2053 19.26 32.3011L20.25 33.2911L21.24 32.3011C21.3358 32.2053 21.4495 32.1293 21.5747 32.0775C21.6998 32.0257 21.834 31.999 21.9694 31.999C22.1049 31.999 22.239 32.0257 22.3642 32.0775C22.4894 32.1293 22.6031 32.2053 22.6989 32.3011C22.7947 32.3969 22.8707 32.5106 22.9225 32.6358C22.9743 32.761 23.001 32.8951 23.001 33.0306C23.001 33.166 22.9743 33.3002 22.9225 33.4253C22.8707 33.5505 22.7947 33.6642 22.6989 33.76L21.7089 34.75L22.6975 35.74ZM21.9688 27.5312H21.2812V28.2188C21.2812 28.4923 21.1726 28.7546 20.9792 28.948C20.7858 29.1413 20.5235 29.25 20.25 29.25C19.9765 29.25 19.7142 29.1413 19.5208 28.948C19.3274 28.7546 19.2188 28.4923 19.2188 28.2188V27.5312H18.5312C18.2577 27.5312 17.9954 27.4226 17.802 27.2292C17.6086 27.0358 17.5 26.7735 17.5 26.5C17.5 26.2265 17.6086 25.9642 17.802 25.7708C17.9954 25.5774 18.2577 25.4688 18.5312 25.4688H19.2188V24.7812C19.2188 24.5077 19.3274 24.2454 19.5208 24.052C19.7142 23.8587 19.9765 23.75 20.25 23.75C20.5235 23.75 20.7858 23.8587 20.9792 24.052C21.1726 24.2454 21.2812 24.5077 21.2812 24.7812V25.4688H21.9688C22.2423 25.4688 22.5046 25.5774 22.698 25.7708C22.8913 25.9642 23 26.2265 23 26.5C23 26.7735 22.8913 27.0358 22.698 27.2292C22.5046 27.4226 22.2423 27.5312 21.9688 27.5312ZM32.9688 37.5H29.5312C29.2577 37.5 28.9954 37.3914 28.802 37.198C28.6087 37.0046 28.5 36.7423 28.5 36.4688C28.5 36.1952 28.6087 35.9329 28.802 35.7395C28.9954 35.5461 29.2577 35.4375 29.5312 35.4375H32.9688C33.2423 35.4375 33.5046 35.5461 33.698 35.7395C33.8914 35.9329 34 36.1952 34 36.4688C34 36.7423 33.8914 37.0046 33.698 37.198C33.5046 37.3914 33.2423 37.5 32.9688 37.5ZM32.9688 34.0625H29.5312C29.2577 34.0625 28.9954 33.9539 28.802 33.7605C28.6087 33.5671 28.5 33.3048 28.5 33.0312C28.5 32.7577 28.6087 32.4954 28.802 32.302C28.9954 32.1086 29.2577 32 29.5312 32H32.9688C33.2423 32 33.5046 32.1086 33.698 32.302C33.8914 32.4954 34 32.7577 34 33.0312C34 33.3048 33.8914 33.5671 33.698 33.7605C33.5046 33.9539 33.2423 34.0625 32.9688 34.0625ZM32.9688 27.875H29.5312C29.2577 27.875 28.9954 27.7663 28.802 27.573C28.6087 27.3796 28.5 27.1173 28.5 26.8438C28.5 26.5702 28.6087 26.3079 28.802 26.1145C28.9954 25.9212 29.2577 25.8125 29.5312 25.8125H32.9688C33.2423 25.8125 33.5046 25.9212 33.698 26.1145C33.8914 26.3079 34 26.5702 34 26.8438C34 27.1173 33.8914 27.3796 33.698 27.573C33.5046 27.7663 33.2423 27.875 32.9688 27.875ZM35.375 18.5938C35.375 19.9206 34.2956 21 32.9688 21H18.5312C17.2044 21 16.125 19.9206 16.125 18.5938V16.5312C16.125 15.2044 17.2044 14.125 18.5312 14.125H32.9688C34.2956 14.125 35.375 15.2044 35.375 16.5312V18.5938Z" fill="white"/>
</svg>
