<svg viewBox="0 0 52 52" fill="none" xmlns="http://www.w3.org/2000/svg">
  <rect width="52" height="52" rx="12" fill="black"/>
  <path d="M7.12026 21.0341C6.26697 15.5195 10.0457 10.3573 15.5603 9.50401L30.9659 7.12026C36.4805 6.26697 41.6427 10.0457 42.496 15.5603L44.8797 30.9659C45.733 36.4805 41.9543 41.6427 36.4397 42.496L21.0341 44.8797C15.5195 45.733 10.3573 41.9543 9.50401 36.4397L7.12026 21.0341Z" fill="white"/>
  <path d="M35.4492 24.1401C35.4277 26.1531 35.5788 28.0899 34.8019 29.9465C33.082 34.057 28.8512 36.3657 24.3926 35.5785C20.1771 34.8343 16.9579 31.0318 16.8626 26.6517C16.826 24.9681 16.8251 23.283 16.8561 21.5994C16.8609 21.3375 17.0715 20.9142 17.2774 20.8489C18.3139 20.5197 19.3803 20.2846 20.5279 19.9931C20.5279 22.1937 20.4657 24.27 20.5511 26.3403C20.6026 27.5889 20.7357 28.8722 21.0928 30.0621C21.7716 32.3243 23.6155 33.5262 26.0949 33.5632C28.5711 33.6001 30.4524 32.4534 31.1718 30.1843C31.5798 28.8971 31.7265 27.4985 31.7954 26.1403C31.8962 24.1559 31.8213 22.1626 31.8213 19.9847C33.0121 20.3039 34.11 20.578 35.1889 20.9129C35.3264 20.9556 35.4301 21.3138 35.4374 21.5296C35.4658 22.3709 35.4491 23.2137 35.4492 24.1401Z" fill="black"/>
  <path d="M24.5333 17.5865C24.3471 16.5799 24.8149 16.3433 25.6437 16.3967C26.3352 16.4412 27.0319 16.4058 27.7583 16.4058C27.7583 19.0427 27.7583 21.527 27.7583 24.0698C26.7291 24.0698 25.7053 24.0698 24.5333 24.0698C24.5333 21.9481 24.5333 19.8082 24.5333 17.5865Z" fill="black"/>
</svg>
